/* XPM */
static char * luciole_xpm[] = {
"32 32 600 2",
"  	c None",
". 	c #23302B",
"+ 	c #3F5B52",
"@ 	c #293B35",
"# 	c #86C0AD",
"$ 	c #8FCEBA",
"% 	c #517569",
"& 	c #30443E",
"* 	c #93D5C0",
"= 	c #94D4C0",
"- 	c #5B8376",
"; 	c #567B6F",
"> 	c #466259",
", 	c #090D0C",
"' 	c #131B18",
") 	c #121A18",
"! 	c #78AD9C",
"~ 	c #8BC8B5",
"{ 	c #3E5951",
"] 	c #6A988A",
"^ 	c #8CC9B6",
"/ 	c #90D0BB",
"( 	c #587E72",
"_ 	c #23332D",
": 	c #436158",
"< 	c #6E9F90",
"[ 	c #88C4B2",
"} 	c #8CCAB7",
"| 	c #8DCBB7",
"1 	c #87C2AF",
"2 	c #6C9A8B",
"3 	c #446158",
"4 	c #25342F",
"5 	c #000000",
"6 	c #0B100F",
"7 	c #374F48",
"8 	c #8BC9B5",
"9 	c #90CFBB",
"0 	c #90D0BC",
"a 	c #699688",
"b 	c #5C8477",
"c 	c #78AE9D",
"d 	c #8DCBB8",
"e 	c #92D2BE",
"f 	c #96D7C2",
"g 	c #99DBC5",
"h 	c #9CDEC8",
"i 	c #9DDFC9",
"j 	c #A0E1CB",
"k 	c #A2E4CE",
"l 	c #95D2BD",
"m 	c #719F8F",
"n 	c #283732",
"o 	c #324A42",
"p 	c #91D0BC",
"q 	c #6A9A8C",
"r 	c #B5C3A5",
"s 	c #334840",
"t 	c #47665D",
"u 	c #82BCA9",
"v 	c #93D4BF",
"w 	c #99DAC6",
"x 	c #9BDDC7",
"y 	c #9CDCC7",
"z 	c #9DDDC7",
"A 	c #9EDDC8",
"B 	c #9FDDC8",
"C 	c #9FDEC8",
"D 	c #A0DEC8",
"E 	c #93CDB9",
"F 	c #395047",
"G 	c #707D6B",
"H 	c #669182",
"I 	c #85BFAD",
"J 	c #76AB9A",
"K 	c #3F5248",
"L 	c #C9D6B7",
"M 	c #DAE9C8",
"N 	c #6E7E6D",
"O 	c #73A595",
"P 	c #78AC9C",
"Q 	c #9CDFC9",
"R 	c #9DDDC8",
"S 	c #A0DEC7",
"T 	c #A1DFC8",
"U 	c #A2DFC8",
"V 	c #A3DFC8",
"W 	c #8ABDAA",
"X 	c #BDCBAD",
"Y 	c #C1D0B1",
"Z 	c #C1CFB1",
"` 	c #B6C3A6",
" .	c #8B947F",
"..	c #7D8C79",
"+.	c #DCE9C7",
"@.	c #A4B097",
"#.	c #4C6C61",
"$.	c #89C6B3",
"%.	c #97D9C4",
"&.	c #9BDCC6",
"*.	c #A1DEC7",
"=.	c #A4DFC8",
"-.	c #A4E0C9",
";.	c #A5E0C9",
">.	c #A5E0C8",
",.	c #AAE6CE",
"'.	c #608376",
").	c #D3E2C1",
"!.	c #C2CFB1",
"~.	c #CCDABA",
"{.	c #C4D3B4",
"].	c #C6D5B5",
"^.	c #C4D1B2",
"/.	c #2E3730",
"(.	c #516E62",
"_.	c #26332D",
":.	c #79B09F",
"<.	c #95D5C1",
"[.	c #9ADCC7",
"}.	c #9FDFC9",
"|.	c #A1E1CA",
"1.	c #A2DEC8",
"2.	c #A6E0C9",
"3.	c #A8E0C9",
"4.	c #A9E1C9",
"5.	c #AAE1C9",
"6.	c #ABE2C9",
"7.	c #AAE1C8",
"8.	c #ABE4CC",
"9.	c #78A190",
"0.	c #D1E0C0",
"a.	c #BDCCAD",
"b.	c #CEDCBD",
"c.	c #C2D0B1",
"d.	c #121917",
"e.	c #8EA892",
"f.	c #90C3AE",
"g.	c #2E433D",
"h.	c #91D1BD",
"i.	c #9ADCC6",
"j.	c #9EDFC9",
"k.	c #86BAA8",
"l.	c #77A494",
"m.	c #A6E3CB",
"n.	c #ADE2CA",
"o.	c #AFE3CA",
"p.	c #B1E4CA",
"q.	c #B2E4CB",
"r.	c #B0E4CB",
"s.	c #B1E6CD",
"t.	c #80A996",
"u.	c #D3E1C1",
"v.	c #809480",
"w.	c #7AAE9D",
"x.	c #8AC7B4",
"y.	c #8CC7B3",
"z.	c #89C7B3",
"A.	c #364E46",
"B.	c #9CDDC7",
"C.	c #9EDAC4",
"D.	c #435B52",
"E.	c #A9E3CB",
"F.	c #ACE3CA",
"G.	c #B0E3CA",
"H.	c #B4E5CA",
"I.	c #B7E6CB",
"J.	c #B9E6CB",
"K.	c #BDE9CE",
"L.	c #BCE8CD",
"M.	c #BAE6CC",
"N.	c #BAE8CD",
"O.	c #BAEBD0",
"P.	c #729281",
"Q.	c #CBDABA",
"R.	c #CEDDBD",
"S.	c #DCEBCA",
"T.	c #344B44",
"U.	c #97CEB9",
"V.	c #97D8C3",
"W.	c #97D9C5",
"X.	c #98DBC6",
"Y.	c #94D5C0",
"Z.	c #3A534C",
"`.	c #9EE1CB",
" +	c #A6E2CB",
".+	c #90C0AC",
"++	c #577367",
"@+	c #B6E9CF",
"#+	c #BAE9CD",
"$+	c #BFE9CE",
"%+	c #C2EACF",
"&+	c #C4EBCF",
"*+	c #A5C6AE",
"=+	c #C2E7CB",
"-+	c #CEF5D8",
";+	c #A9CDB5",
">+	c #B3DBC1",
",+	c #5B7063",
"'+	c #D4E3C3",
")+	c #CDDCBC",
"!+	c #E4F2CF",
"~+	c #586557",
"{+	c #8DCCB9",
"]+	c #9ADDC8",
"^+	c #99DCC7",
"/+	c #9BE0CA",
"(+	c #385148",
"_+	c #A1E4CE",
":+	c #A1DEC8",
"<+	c #ACE2CA",
"[+	c #9DC9B3",
"}+	c #5E7568",
"|+	c #96B7A1",
"1+	c #9FBFA8",
"2+	c #A7C4AC",
"3+	c #CEEED1",
"4+	c #A7C1A9",
"5+	c #4E5A4F",
"6+	c #586659",
"7+	c #98B29C",
"8+	c #AECFB6",
"9+	c #404B43",
"0+	c #DEEDCC",
"a+	c #B0BDA2",
"b+	c #A6CBB2",
"c+	c #99DEC9",
"d+	c #9CE0CB",
"e+	c #A1E6CF",
"f+	c #405B52",
"g+	c #9AD9C4",
"h+	c #A2DFC7",
"i+	c #A5DFC9",
"j+	c #A9E1CA",
"k+	c #B0E3C9",
"l+	c #B9E8CD",
"m+	c #C2ECD0",
"n+	c #A8C7AF",
"o+	c #B1CBB3",
"p+	c #D2F0D2",
"q+	c #D2EECF",
"r+	c #D7F2D2",
"s+	c #DBF7D6",
"t+	c #DAF6D7",
"u+	c #D3F2D3",
"v+	c #7E9280",
"w+	c #D5E4C3",
"x+	c #ADC1A7",
"y+	c #BBDCC0",
"z+	c #98D9C4",
"A+	c #9EE4CE",
"B+	c #689788",
"C+	c #598074",
"D+	c #8BC7B4",
"E+	c #81B7A5",
"F+	c #648D7F",
"G+	c #A4E4CC",
"H+	c #94C8B3",
"I+	c #99C8B2",
"J+	c #B5E4CA",
"K+	c #BCE7CC",
"L+	c #C4E9CD",
"M+	c #CCEDD0",
"N+	c #D3EFD0",
"O+	c #D6EFCF",
"P+	c #DAF0D0",
"Q+	c #DBF0D0",
"R+	c #DCF1D0",
"S+	c #DCF3D3",
"T+	c #BFD5BA",
"U+	c #161917",
"V+	c #C5D4B5",
"W+	c #DDECCB",
"X+	c #AFC8AE",
"Y+	c #C3E5C9",
"Z+	c #A4D7BF",
"`+	c #7CB4A3",
" @	c #6FA091",
".@	c #93D0BC",
"+@	c #9CDAC5",
"@@	c #5F8477",
"#@	c #91C7B3",
"$@	c #9CD0BA",
"%@	c #6E8E7E",
"&@	c #B5E3C9",
"*@	c #C0E8CD",
"=@	c #C8EBCE",
"-@	c #D0ECCF",
";@	c #D5EFCF",
">@	c #DFF1D0",
",@	c #E2F2D1",
"'@	c #E3F3D2",
")@	c #CCDEC1",
"!@	c #2C2E27",
"~@	c #C2D0B2",
"{@	c #C6D5B6",
"]@	c #9DB8A1",
"^@	c #C2E6C9",
"/@	c #B7DEC3",
"(@	c #618C7E",
"_@	c #7EB6A5",
":@	c #72A495",
"<@	c #659183",
"[@	c #9EE0CA",
"}@	c #9EDEC8",
"|@	c #8DC4B0",
"1@	c #5A7C6F",
"2@	c #B1EBD1",
"3@	c #9BC8B2",
"4@	c #738F7F",
"5@	c #ADD0B7",
"6@	c #C3E3C6",
"7@	c #D2EDCE",
"8@	c #D9F0D0",
"9@	c #DFF1D1",
"0@	c #E9F7D5",
"a@	c #C7D4B7",
"b@	c #53564A",
"c@	c #FFFFE4",
"d@	c #D6E6C4",
"e@	c #455349",
"f@	c #97B9A2",
"g@	c #C2E5C9",
"h@	c #C1E4C8",
"i@	c #7F9C8A",
"j@	c #8AC6B3",
"k@	c #46655B",
"l@	c #9CDDC8",
"m@	c #9FDEC7",
"n@	c #A4E2CB",
"o@	c #90C5B0",
"p@	c #628375",
"q@	c #6A8B7C",
"r@	c #BAEDD3",
"s@	c #B7E2C8",
"t@	c #A6C5AD",
"u@	c #BEDBBF",
"v@	c #D3EECF",
"w@	c #DCF2D1",
"x@	c #E8FBD8",
"y@	c #F1FFDB",
"z@	c #979F87",
"A@	c #515644",
"B@	c #A2A67F",
"C@	c #9DA183",
"D@	c #FFFFDC",
"E@	c #DBEAC9",
"F@	c #DFEECC",
"G@	c #758876",
"H@	c #92C2AD",
"I@	c #C0E4C8",
"J@	c #ACC4AA",
"K@	c #9FCFB7",
"L@	c #3A564E",
"M@	c #A1E6D0",
"N@	c #9DDCC7",
"O@	c #A8E1C9",
"P@	c #638375",
"Q@	c #28342E",
"R@	c #708979",
"S@	c #A2C1AA",
"T@	c #CCECCE",
"U@	c #D4EFD1",
"V@	c #C6DABD",
"W@	c #7C8573",
"X@	c #36392F",
"Y@	c #C0C498",
"Z@	c #F9F8D5",
"`@	c #FEFDE7",
" #	c #C0C49F",
".#	c #CECFAD",
"+#	c #CFDEBE",
"@#	c #AFC3A9",
"##	c #8CC5B2",
"$#	c #B6DDC2",
"%#	c #C3E6CA",
"&#	c #AFCAB0",
"*#	c #BFDCBF",
"=#	c #728977",
"-#	c #96D3BE",
";#	c #9DDEC8",
">#	c #A2E0C8",
",#	c #A6E1CA",
"'#	c #496055",
")#	c #576C60",
"!#	c #6D8374",
"~#	c #87A08D",
"{#	c #617062",
"]#	c #677566",
"^#	c #697566",
"/#	c #434F46",
"(#	c #B1CAAB",
"_#	c #F7FCD0",
":#	c #FFFFFF",
"<#	c #F3F2DA",
"[#	c #B5B894",
"}#	c #BCBFA0",
"|#	c #C8D6B8",
"1#	c #DEEECC",
"2#	c #9DAB93",
"3#	c #9CC5AD",
"4#	c #9BDAC4",
"5#	c #BDDFC4",
"6#	c #B5D3B8",
"7#	c #B6D3B8",
"8#	c #C1E1C4",
"9#	c #A2C3AA",
"0#	c #A1D7C0",
"a#	c #A0E1CA",
"b#	c #A8E7CF",
"c#	c #5D7F72",
"d#	c #8DB29E",
"e#	c #7D9B88",
"f#	c #6D8373",
"g#	c #6B7E6E",
"h#	c #819481",
"i#	c #A0B49D",
"j#	c #E4FCDB",
"k#	c #728776",
"l#	c #CCF3D6",
"m#	c #CBEDCF",
"n#	c #E3F2C8",
"o#	c #939477",
"p#	c #84866C",
"q#	c #F9FCD6",
"r#	c #D9E8C7",
"s#	c #A0B39B",
"t#	c #AFC8AD",
"u#	c #A2D1B8",
"v#	c #9FDAC3",
"w#	c #C0E1C5",
"x#	c #A5BCA3",
"y#	c #C1E2C5",
"z#	c #B5D2B7",
"A#	c #A4BAA0",
"B#	c #9CB69E",
"C#	c #547266",
"D#	c #7BA08E",
"E#	c #AEDCC3",
"F#	c #A9CEB6",
"G#	c #748A79",
"H#	c #6C7E6D",
"I#	c #5C695B",
"J#	c #BBCFB4",
"K#	c #B5C6AC",
"L#	c #86A28F",
"M#	c #C8EED1",
"N#	c #C7EBCE",
"O#	c #CCE2BC",
"P#	c #C1C493",
"Q#	c #929475",
"R#	c #F2F5D0",
"S#	c #D2E1C0",
"T#	c #A0B49B",
"U#	c #BADBBF",
"V#	c #B2CCB1",
"W#	c #A6D4BB",
"X#	c #A6D8BF",
"Y#	c #B9DABE",
"Z#	c #A8BFA6",
"`#	c #BFE0C3",
" $	c #C3E4C6",
".$	c #C4E4C6",
"+$	c #B9DBBF",
"@$	c #A0D0B9",
"#$	c #678172",
"$$	c #95B8A2",
"%$	c #6B7D6E",
"&$	c #BDD9BE",
"*$	c #BCD4B9",
"=$	c #555D51",
"-$	c #596B5E",
";$	c #C9F3D6",
">$	c #C3E9CC",
",$	c #C7EACE",
"'$	c #B4CFB2",
")$	c #4C4E3F",
"!$	c #D1D3B3",
"~$	c #AABBA0",
"{$	c #BDDEC3",
"]$	c #B6D4BA",
"^$	c #B2CDB3",
"/$	c #A8D0B7",
"($	c #A4D6BE",
"_$	c #AED0B7",
":$	c #ADC3A9",
"<$	c #AEC8AD",
"[$	c #AFC7AD",
"}$	c #A5BDA3",
"|$	c #719383",
"1$	c #536E63",
"2$	c #8DAA96",
"3$	c #7F9583",
"4$	c #9AB19B",
"5$	c #A5B9A1",
"6$	c #7A8674",
"7$	c #A5CCB3",
"8$	c #C0E9CD",
"9$	c #C1E8CC",
"0$	c #CAF1D4",
"a$	c #7E917F",
"b$	c #D4E3C2",
"c$	c #C5D3B5",
"d$	c #AEC9AF",
"e$	c #C2E6CA",
"f$	c #BEE0C4",
"g$	c #BFE1C5",
"h$	c #B7DABE",
"i$	c #A2CFB7",
"j$	c #A2D4BC",
"k$	c #B3D0B5",
"l$	c #B7CFB3",
"m$	c #A5CBB2",
"n$	c #A3DDC7",
"o$	c #A1D9C2",
"p$	c #485B51",
"q$	c #576559",
"r$	c #647263",
"s$	c #576558",
"t$	c #759180",
"u$	c #A8CFB8",
"v$	c #BAE3C8",
"w$	c #C7F2D5",
"x$	c #7F9987",
"y$	c #ABB99F",
"z$	c #B8D6BB",
"A$	c #C1E2C6",
"B$	c #B1D1B5",
"C$	c #9DDCC6",
"D$	c #A0DFC8",
"E$	c #A3DEC8",
"F$	c #ADE6CD",
"G$	c #A8DDC7",
"H$	c #ADE0C8",
"I$	c #B7EBD1",
"J$	c #BBECD1",
"K$	c #8CB19C",
"L$	c #A6CDB6",
"M$	c #7D9886",
"N$	c #AFBDA2",
"O$	c #AFC6AD",
"P$	c #B5D4B9",
"Q$	c #BFE1C6",
"R$	c #BFE2C6",
"S$	c #BDDEC2",
"T$	c #BEDABD",
"U$	c #B0D6BC",
"V$	c #A0DBC5",
"W$	c #A7E0C9",
"X$	c #ABE2CA",
"Y$	c #B0E2C9",
"Z$	c #BCEFD5",
"`$	c #698374",
" %	c #445249",
".%	c #C2D1B2",
"+%	c #DEEDCB",
"@%	c #CDDABC",
"#%	c #B1BFA5",
"$%	c #A1B59C",
"%%	c #C3E3C7",
"&%	c #ACD8BF",
"*%	c #9FDFC8",
"=%	c #A7E2CA",
"-%	c #A7DFC7",
";%	c #ABE1CA",
">%	c #B1E7CE",
",%	c #88B09D",
"'%	c #6D7B69",
")%	c #BCCAAC",
"!%	c #D9E9C8",
"~%	c #A2AE95",
"{%	c #ADC6AD",
"]%	c #C1E5C9",
"^%	c #C2E4C8",
"/%	c #C3E4C8",
"(%	c #B0D7BD",
"_%	c #9EDDC7",
":%	c #9FDAC4",
"<%	c #7AA796",
"[%	c #9DD3BD",
"}%	c #A6DEC6",
"|%	c #84AC9A",
"1%	c #626C5C",
"2%	c #CCDBBB",
"3%	c #C0CBAE",
"4%	c #ACBCA2",
"5%	c #B6CEB3",
"6%	c #B8D3B8",
"7%	c #99BBA3",
"8%	c #7CB09F",
"9%	c #3E534B",
"0%	c #506B60",
"a%	c #82AF9D",
"b%	c #698474",
"c%	c #6E7462",
"d%	c #CDDBBC",
"e%	c #BFCCAE",
"f%	c #ABB79C",
"g%	c #7A8774",
"h%	c #8E9A83",
"i%	c #A8B499",
"                                                          . +   ",
"                                                        @ # $ % ",
"                                                        & * = - ",
"                  ; >                     , ' )           ! ~ { ",
"                ] ^ / (             _ : < [ } | 1 2 3 4   5 6   ",
"              7 8 9 0 a           b c d e f g h i j k l m n     ",
"              o 0 9 p q   r   s t u v w x x y z A A B C D E F   ",
"              G H I J K L M N O [ P Q x y R C S S T U U V V W   ",
"        X Y Z `  ...    +.@.#.$.%.g &.R A S *.U V =.-.;.>.;.,.'.",
"      ).!.~.{.].  ).^./.(._.:.<.[.y }.|.S 1.=.2.3.4.5.6.5.7.8.9.",
"    0.a.  b.c.M   d.e.f.} g.h.i.y j.k.l.m.;.4.n.o.p.q.q.q.r.s.t.",
"    u.    ).    v.w.x.y.z.A.%.B.R C C.D.E.F.G.H.I.J.K.L.M.N.O.P.",
"  Q.R.    S.  T.U.V.W.X.Y.Z.`.R C *. +.+++@+#+$+%+&+*+=+-+;+>+,+",
"  '+)+    !+~+{+]+X.^+^+/+(+_+A :+V >.<+[+}+|+1+2+3+4+5+6+7+8+9+",
"  0+R.    a+b+c+X.d+W.^+e+f+g+D h+i+j+k+l+m+n+o+p+q+r+s+t+u+v+  ",
"Y 0+w+    x+y+z+A+B+C+D+Q E+F+G+V H+I+J+K+L+M+N+O+P+Q+R+S+T+U+  ",
"V+W+S.    X+Y+Z+`+- ~  @.@+@@@#@;.$@%@&@*@=@-@;@Q+>@,@'@)@!@    ",
"~@W+W+{@  ]@^@/@(@_@:@<@[@}@|@1@H+2@3@4@5@6@7@8@9@'@0@a@b@c@    ",
"  W+S.d@e@f@g@h@i@j@k@[.l@m@n@o@p@q@r@s@t@u@v@w@x@y@z@A@B@C@D@  ",
"  E@S.F@G@H@I@h@J@K@L@M@N@m@U i+O@P@Q@R@S@T@U@V@W@X@Y@Z@`@ #.#  ",
"  +#S.S.@###$#%#&#*#=#-#;#D >#,#'#)#!#~#{#]#^#/#*+(#_#:#<#[#}#  ",
"  |#W+1#2#3#4#5#6#7#8#9#0#a#b#c#d#e#f#g#h#i#j#k#l#m#n#c@o#p#q#  ",
"    r#0+s#t#u#v#w#x#y#z#A#B#C#D#E#F#G#H#I#J#K#L#M#N#O#P#Q#R#    ",
"    S#0+T#U#V#W#X#Y#Z#`# $.$+$@$#$$$%$&$*$=$-$;$>$,$'$)$!$      ",
"      W+~${$]$^$/$($_$:$<$[$}$|$1$2$3$4$5$6$7$8$9$0$a$          ",
"      b$c$d$e$f$g$h$i$j$k$l$m$n$o$p$q$r$s$t$u$v$w$x$            ",
"        r#y$z$h@g@g@A$B$j$C$D$E$;.F$G$H$I$J$K$L$M$              ",
"        c.r#N$O$P$Q$R$S$T$U$V$:+-.W$X$n.Y$Z$`$ %                ",
"          .%+%@%#%$%<$]$A$%%&%*%V =%-%;%>%,%'%                  ",
"            )%!%F@~%{%]%^%/%(%_%:%<%[%}%|%1%                    ",
"                2%0+3%4%5%6%7%8%9%0%a%b%c%                      ",
"                    .%d%e%f%      g%h%i%                        "};
